<svg width="29" height="21" xmlns="http://www.w3.org/2000/svg">
    <defs>
        <linearGradient id="MenuMobilegrad" x1="0%" x2="99.756%" y1="6.976%" y2="0%">
            <stop offset="0%" stop-color="rgb(254,190,71)" stop-opacity="1"></stop>
            <stop offset="99%" stop-color="rgb(253,114,65)" stop-opacity="1"></stop>
        </linearGradient>
    </defs>
    <path fill-rule="evenodd"
        d="M27.955 14.678H1.006a1 1 0 0 1-1.013-.988 1 1 0 0 1 1.013-.988h26.949a1 1 0 0 1 1.013.988 1 1 0 0 1-1.013.988Zm0-6.412a1 1 0 0 1-1.013-.988V3.383l-4.843 4.603a1.03 1.03 0 0 1-.707.28H7.568a1.03 1.03 0 0 1-.707-.28L2.019 3.383v3.895a1 1 0 0 1-1.013.988 1 1 0 0 1-1.013-.988V1.041a.99.99 0 0 1 .619-.91c.375-.153.81-.074 1.101.203l6.266 5.957h13.002L27.248.334a1.035 1.035 0 0 1 1.101-.203.989.989 0 0 1 .619.91v6.237a1 1 0 0 1-1.013.988ZM1.006 19.027h26.949a1 1 0 0 1 1.013.987 1 1 0 0 1-1.013.988H1.006a1 1 0 0 1-1.013-.988 1 1 0 0 1 1.013-.987Z"
        class="Icon__IconPathFill-sc-1asuq2u-1 zUzss" color="#FFF" />
    <path
        d="M27.955 14.678H1.006a1 1 0 0 1-1.013-.988 1 1 0 0 1 1.013-.988h26.949a1 1 0 0 1 1.013.988 1 1 0 0 1-1.013.988Zm0-6.412a1 1 0 0 1-1.013-.988V3.383l-4.843 4.603a1.03 1.03 0 0 1-.707.28H7.568a1.03 1.03 0 0 1-.707-.28L2.019 3.383v3.895a1 1 0 0 1-1.013.988 1 1 0 0 1-1.013-.988V1.041a.99.99 0 0 1 .619-.91c.375-.153.81-.074 1.101.203l6.266 5.957h13.002L27.248.334a1.035 1.035 0 0 1 1.101-.203.989.989 0 0 1 .619.91v6.237a1 1 0 0 1-1.013.988ZM1.006 19.027h26.949a1 1 0 0 1 1.013.987 1 1 0 0 1-1.013.988H1.006a1 1 0 0 1-1.013-.988 1 1 0 0 1 1.013-.987Z"
        class="Icon__IconPathFill-sc-1asuq2u-1 hMiLlh" fill="url(#MenuMobilegrad)" />
</svg>
